<svg width="25" height="24" viewBox="0 0 25 24" fill="none" xmlns="http://www.w3.org/2000/svg">
<g clip-path="url(#clip0_916_501)">
<path fill-rule="evenodd" clip-rule="evenodd" d="M12.552 0C5.927 0 0.552002 5.375 0.552002 12C0.552002 18.625 5.927 24 12.552 24C19.164 24 24.552 18.625 24.552 12C24.552 5.375 19.164 0 12.552 0ZM20.478 5.531C21.9555 7.33034 22.7731 9.5809 22.795 11.909C22.457 11.844 19.073 11.154 15.663 11.584C15.584 11.414 15.519 11.232 15.441 11.05C15.2289 10.5494 15.0035 10.0546 14.765 9.566C18.539 8.03 20.257 5.818 20.478 5.531ZM12.552 1.771C15.155 1.771 17.537 2.746 19.346 4.347C19.164 4.607 17.615 6.677 13.971 8.043C12.291 4.959 10.431 2.433 10.144 2.043C10.9333 1.85869 11.7415 1.76707 12.552 1.77V1.771ZM8.192 2.733C8.465 3.098 10.287 5.636 11.992 8.655C7.202 9.931 2.972 9.905 2.517 9.905C3.181 6.729 5.329 4.087 8.192 2.733ZM2.296 12.013V11.701C2.739 11.714 7.71 11.779 12.826 10.243C13.125 10.816 13.398 11.401 13.658 11.987C13.528 12.026 13.385 12.065 13.255 12.104C7.971 13.809 5.159 18.468 4.925 18.859C3.23241 16.9805 2.2958 14.5415 2.296 12.013ZM12.552 22.256C10.274 22.2596 8.06064 21.499 6.266 20.096C6.448 19.718 8.53 15.709 14.309 13.692C14.335 13.679 14.349 13.679 14.374 13.666C15.819 17.401 16.404 20.538 16.561 21.436C15.324 21.97 13.971 22.256 12.552 22.256ZM18.266 20.499C18.162 19.874 17.615 16.881 16.274 13.197C19.489 12.69 22.3 13.523 22.652 13.64C22.209 16.49 20.569 18.95 18.266 20.499Z" fill="white"/>
</g>
<defs>
<clipPath id="clip0_916_501">
<rect width="24" height="24" fill="white" transform="translate(0.552002)"/>
</clipPath>
</defs>
</svg>
