<svg width="25" height="24" viewBox="0 0 25 24" fill="none" xmlns="http://www.w3.org/2000/svg">
<path fill-rule="evenodd" clip-rule="evenodd" d="M1.552 2.838C1.552 2.35053 1.74565 1.88303 2.09034 1.53834C2.43503 1.19365 2.90253 1 3.39 1H21.712C21.9536 0.999608 22.1929 1.04687 22.4161 1.13907C22.6394 1.23127 22.8423 1.36661 23.0133 1.53734C23.1842 1.70807 23.3197 1.91083 23.4122 2.13401C23.5046 2.3572 23.5521 2.59643 23.552 2.838V21.16C23.5523 21.4016 23.5049 21.6409 23.4126 21.8642C23.3203 22.0875 23.1848 22.2904 23.014 22.4613C22.8432 22.6322 22.6404 22.7678 22.4171 22.8602C22.1939 22.9526 21.9546 23.0001 21.713 23H3.39C3.14855 23 2.90946 22.9524 2.6864 22.86C2.46334 22.7676 2.26067 22.6321 2.08999 22.4613C1.9193 22.2905 1.78393 22.0878 1.69162 21.8647C1.59932 21.6416 1.55187 21.4025 1.552 21.161V2.838ZM10.26 9.388H13.239V10.884C13.669 10.024 14.769 9.25 16.422 9.25C19.591 9.25 20.342 10.963 20.342 14.106V19.928H17.135V14.822C17.135 13.032 16.705 12.022 15.613 12.022C14.098 12.022 13.468 13.111 13.468 14.822V19.928H10.26V9.388ZM4.76 19.791H7.968V9.25H4.76V19.79V19.791ZM8.427 5.812C8.43305 6.08668 8.38417 6.35979 8.28324 6.61532C8.18231 6.87084 8.03135 7.10364 7.83923 7.30003C7.64711 7.49643 7.4177 7.65248 7.16446 7.75901C6.91121 7.86554 6.63924 7.92042 6.3645 7.92042C6.08976 7.92042 5.81779 7.86554 5.56455 7.75901C5.3113 7.65248 5.08189 7.49643 4.88977 7.30003C4.69765 7.10364 4.5467 6.87084 4.44576 6.61532C4.34483 6.35979 4.29595 6.08668 4.302 5.812C4.31387 5.27286 4.53639 4.75979 4.92189 4.38269C5.30739 4.00558 5.82523 3.79442 6.3645 3.79442C6.90378 3.79442 7.42162 4.00558 7.80712 4.38269C8.19262 4.75979 8.41513 5.27286 8.427 5.812Z" fill="white"/>
</svg>
