<svg width="25" height="24" viewBox="0 0 25 24" fill="none" xmlns="http://www.w3.org/2000/svg">
<path fill-rule="evenodd" clip-rule="evenodd" d="M8.017 1.066C9.19 1.012 9.564 1 12.552 1C15.54 1 15.914 1.013 17.086 1.066C18.258 1.119 19.058 1.306 19.758 1.577C20.491 1.854 21.156 2.287 21.706 2.847C22.266 3.396 22.698 4.06 22.974 4.794C23.246 5.494 23.432 6.294 23.486 7.464C23.54 8.639 23.552 9.013 23.552 12C23.552 14.988 23.539 15.362 23.486 16.535C23.433 17.705 23.246 18.505 22.974 19.205C22.698 19.9391 22.2653 20.6042 21.706 21.154C21.156 21.714 20.491 22.146 19.758 22.422C19.058 22.694 18.258 22.88 17.088 22.934C15.914 22.988 15.54 23 12.552 23C9.564 23 9.19 22.987 8.017 22.934C6.847 22.881 6.047 22.694 5.347 22.422C4.61292 22.146 3.94782 21.7133 3.398 21.154C2.83838 20.6047 2.40532 19.9399 2.129 19.206C1.858 18.506 1.672 17.706 1.618 16.536C1.564 15.361 1.552 14.987 1.552 12C1.552 9.012 1.565 8.638 1.618 7.466C1.671 6.294 1.858 5.494 2.129 4.794C2.40572 4.06008 2.83912 3.39531 3.399 2.846C3.94804 2.2865 4.61247 1.85344 5.346 1.577C6.046 1.306 6.846 1.12 8.016 1.066H8.017ZM16.997 3.046C15.837 2.993 15.489 2.982 12.552 2.982C9.615 2.982 9.267 2.993 8.107 3.046C7.034 3.095 6.452 3.274 6.064 3.425C5.551 3.625 5.184 3.862 4.799 4.247C4.43405 4.60205 4.15318 5.03428 3.977 5.512C3.826 5.9 3.647 6.482 3.598 7.555C3.545 8.715 3.534 9.063 3.534 12C3.534 14.937 3.545 15.285 3.598 16.445C3.647 17.518 3.826 18.1 3.977 18.488C4.153 18.965 4.434 19.398 4.799 19.753C5.154 20.118 5.587 20.399 6.064 20.575C6.452 20.726 7.034 20.905 8.107 20.954C9.267 21.007 9.614 21.018 12.552 21.018C15.49 21.018 15.837 21.007 16.997 20.954C18.07 20.905 18.652 20.726 19.04 20.575C19.553 20.375 19.92 20.138 20.305 19.753C20.67 19.398 20.951 18.965 21.127 18.488C21.278 18.1 21.457 17.518 21.506 16.445C21.559 15.285 21.57 14.937 21.57 12C21.57 9.063 21.559 8.715 21.506 7.555C21.457 6.482 21.278 5.9 21.127 5.512C20.927 4.999 20.69 4.632 20.305 4.247C19.9499 3.88207 19.5177 3.60121 19.04 3.425C18.652 3.274 18.07 3.095 16.997 3.046ZM11.147 15.391C11.9317 15.7176 12.8054 15.7617 13.6189 15.5157C14.4325 15.2697 15.1354 14.7489 15.6076 14.0422C16.0798 13.3356 16.2921 12.4869 16.208 11.6411C16.124 10.7953 15.749 10.005 15.147 9.405C14.7632 9.02148 14.2992 8.72781 13.7883 8.54515C13.2775 8.36248 12.7324 8.29536 12.1925 8.34862C11.6526 8.40187 11.1312 8.57418 10.6658 8.85313C10.2005 9.13208 9.80275 9.51074 9.5013 9.96185C9.19986 10.413 9.00219 10.9253 8.92252 11.462C8.84284 11.9986 8.88315 12.5463 9.04054 13.0655C9.19793 13.5847 9.46848 14.0626 9.83272 14.4647C10.197 14.8668 10.6458 15.1832 11.147 15.391ZM8.554 8.002C9.07903 7.47697 9.70232 7.0605 10.3883 6.77636C11.0743 6.49222 11.8095 6.34597 12.552 6.34597C13.2945 6.34597 14.0297 6.49222 14.7157 6.77636C15.4017 7.0605 16.025 7.47697 16.55 8.002C17.075 8.52702 17.4915 9.15032 17.7756 9.8363C18.0598 10.5223 18.206 11.2575 18.206 12C18.206 12.7425 18.0598 13.4777 17.7756 14.1637C17.4915 14.8497 17.075 15.473 16.55 15.998C15.4897 17.0583 14.0515 17.654 12.552 17.654C11.0525 17.654 9.61434 17.0583 8.554 15.998C7.49367 14.9377 6.89798 13.4995 6.89798 12C6.89798 10.5005 7.49367 9.06234 8.554 8.002ZM19.46 7.188C19.5901 7.06527 19.6943 6.91768 19.7663 6.75397C19.8383 6.59027 19.8768 6.41377 19.8794 6.23493C19.882 6.05609 19.8487 5.87855 19.7815 5.71281C19.7142 5.54707 19.6144 5.39651 19.488 5.27004C19.3615 5.14357 19.2109 5.04376 19.0452 4.97652C18.8795 4.90928 18.7019 4.87598 18.5231 4.87858C18.3442 4.88119 18.1677 4.91965 18.004 4.9917C17.8403 5.06374 17.6927 5.1679 17.57 5.298C17.3313 5.55103 17.2006 5.88712 17.2057 6.23493C17.2108 6.58274 17.3512 6.91488 17.5972 7.16084C17.8431 7.40681 18.1753 7.54723 18.5231 7.5523C18.8709 7.55737 19.207 7.42669 19.46 7.188Z" fill="white"/>
</svg>
